<mxfile host="Electron" modified="2024-03-27T05:39:10.755Z" agent="Mozilla/5.0 (Windows NT 10.0; Win64; x64) AppleWebKit/537.36 (KHTML, like Gecko) draw.io/23.0.2 Chrome/120.0.6099.109 Electron/28.1.0 Safari/537.36" etag="WHk0KtLsAmElSpoml1pF" version="23.0.2" type="device">
  <diagram name="Page-1" id="rQtV4kcIptzUqTer7J5K">
    <mxGraphModel dx="864" dy="508" grid="1" gridSize="10" guides="1" tooltips="1" connect="1" arrows="1" fold="1" page="1" pageScale="1" pageWidth="1200" pageHeight="1600" math="0" shadow="0">
      <root>
        <mxCell id="0" />
        <mxCell id="1" parent="0" />
        <mxCell id="EevinZ-3thIcNN1Y9zwA-1" value="User" style="shape=umlActor;verticalLabelPosition=bottom;verticalAlign=top;html=1;" vertex="1" parent="1">
          <mxGeometry x="80" y="80" width="30" height="60" as="geometry" />
        </mxCell>
        <mxCell id="EevinZ-3thIcNN1Y9zwA-2" value="Blogger" style="shape=umlActor;verticalLabelPosition=bottom;verticalAlign=top;html=1;" vertex="1" parent="1">
          <mxGeometry x="80" y="330" width="30" height="60" as="geometry" />
        </mxCell>
        <mxCell id="EevinZ-3thIcNN1Y9zwA-8" value="Extends" style="endArrow=block;endSize=16;endFill=0;html=1;rounded=0;exitX=0.5;exitY=0;exitDx=0;exitDy=0;exitPerimeter=0;" edge="1" parent="1" source="EevinZ-3thIcNN1Y9zwA-2">
          <mxGeometry width="160" relative="1" as="geometry">
            <mxPoint x="90" y="320" as="sourcePoint" />
            <mxPoint x="95" y="160" as="targetPoint" />
          </mxGeometry>
        </mxCell>
        <mxCell id="EevinZ-3thIcNN1Y9zwA-10" value="Create Post" style="ellipse;whiteSpace=wrap;html=1;" vertex="1" parent="1">
          <mxGeometry x="400" y="300" width="140" height="70" as="geometry" />
        </mxCell>
        <mxCell id="EevinZ-3thIcNN1Y9zwA-13" value="" style="endArrow=classic;html=1;rounded=0;entryX=0;entryY=0.5;entryDx=0;entryDy=0;exitX=1;exitY=0.3333333333333333;exitDx=0;exitDy=0;exitPerimeter=0;" edge="1" parent="1" source="EevinZ-3thIcNN1Y9zwA-2" target="EevinZ-3thIcNN1Y9zwA-10">
          <mxGeometry width="50" height="50" relative="1" as="geometry">
            <mxPoint x="160" y="370" as="sourcePoint" />
            <mxPoint x="240" y="290" as="targetPoint" />
            <Array as="points">
              <mxPoint x="110" y="350" />
            </Array>
          </mxGeometry>
        </mxCell>
        <mxCell id="EevinZ-3thIcNN1Y9zwA-14" value="Edit Post" style="ellipse;whiteSpace=wrap;html=1;" vertex="1" parent="1">
          <mxGeometry x="290" y="420" width="140" height="70" as="geometry" />
        </mxCell>
        <mxCell id="EevinZ-3thIcNN1Y9zwA-15" value="Delete Post" style="ellipse;whiteSpace=wrap;html=1;" vertex="1" parent="1">
          <mxGeometry x="530" y="420" width="140" height="70" as="geometry" />
        </mxCell>
        <mxCell id="EevinZ-3thIcNN1Y9zwA-16" value="&amp;lt;&amp;lt;extend&amp;gt;&amp;gt;" style="html=1;verticalAlign=bottom;labelBackgroundColor=none;endArrow=open;endFill=0;dashed=1;rounded=0;exitX=0.5;exitY=0;exitDx=0;exitDy=0;entryX=0.214;entryY=0.957;entryDx=0;entryDy=0;entryPerimeter=0;" edge="1" parent="1" source="EevinZ-3thIcNN1Y9zwA-14" target="EevinZ-3thIcNN1Y9zwA-10">
          <mxGeometry width="160" relative="1" as="geometry">
            <mxPoint x="360" y="270" as="sourcePoint" />
            <mxPoint x="520" y="270" as="targetPoint" />
          </mxGeometry>
        </mxCell>
        <mxCell id="EevinZ-3thIcNN1Y9zwA-17" value="&amp;lt;&amp;lt;extend&amp;gt;&amp;gt;" style="html=1;verticalAlign=bottom;labelBackgroundColor=none;endArrow=open;endFill=0;dashed=1;rounded=0;" edge="1" parent="1" source="EevinZ-3thIcNN1Y9zwA-15" target="EevinZ-3thIcNN1Y9zwA-10">
          <mxGeometry width="160" relative="1" as="geometry">
            <mxPoint x="530" y="420" as="sourcePoint" />
            <mxPoint x="596" y="367" as="targetPoint" />
          </mxGeometry>
        </mxCell>
        <mxCell id="EevinZ-3thIcNN1Y9zwA-18" value="View Post" style="ellipse;whiteSpace=wrap;html=1;" vertex="1" parent="1">
          <mxGeometry x="400" y="160" width="140" height="70" as="geometry" />
        </mxCell>
        <mxCell id="EevinZ-3thIcNN1Y9zwA-19" value="" style="endArrow=classic;html=1;rounded=0;entryX=0;entryY=0.5;entryDx=0;entryDy=0;exitX=0.533;exitY=0.383;exitDx=0;exitDy=0;exitPerimeter=0;" edge="1" parent="1" source="EevinZ-3thIcNN1Y9zwA-1" target="EevinZ-3thIcNN1Y9zwA-18">
          <mxGeometry width="50" height="50" relative="1" as="geometry">
            <mxPoint x="110" y="105" as="sourcePoint" />
            <mxPoint x="400" y="90" as="targetPoint" />
            <Array as="points" />
          </mxGeometry>
        </mxCell>
        <mxCell id="EevinZ-3thIcNN1Y9zwA-22" value="&amp;lt;&amp;lt;extend&amp;gt;&amp;gt;" style="html=1;verticalAlign=bottom;labelBackgroundColor=none;endArrow=open;endFill=0;dashed=1;rounded=0;entryX=0.5;entryY=0;entryDx=0;entryDy=0;exitX=0.5;exitY=1;exitDx=0;exitDy=0;" edge="1" parent="1" source="EevinZ-3thIcNN1Y9zwA-18" target="EevinZ-3thIcNN1Y9zwA-10">
          <mxGeometry width="160" relative="1" as="geometry">
            <mxPoint x="567" y="248.22" as="sourcePoint" />
            <mxPoint x="503" y="190.22" as="targetPoint" />
          </mxGeometry>
        </mxCell>
        <mxCell id="EevinZ-3thIcNN1Y9zwA-23" value="Like Post" style="ellipse;whiteSpace=wrap;html=1;" vertex="1" parent="1">
          <mxGeometry x="650" y="100" width="140" height="70" as="geometry" />
        </mxCell>
        <mxCell id="EevinZ-3thIcNN1Y9zwA-24" value="&amp;lt;&amp;lt;extend&amp;gt;&amp;gt;" style="html=1;verticalAlign=bottom;labelBackgroundColor=none;endArrow=open;endFill=0;dashed=1;rounded=0;entryX=1;entryY=0.357;entryDx=0;entryDy=0;exitX=0.014;exitY=0.643;exitDx=0;exitDy=0;exitPerimeter=0;entryPerimeter=0;" edge="1" parent="1" source="EevinZ-3thIcNN1Y9zwA-23" target="EevinZ-3thIcNN1Y9zwA-18">
          <mxGeometry width="160" relative="1" as="geometry">
            <mxPoint x="570" y="230" as="sourcePoint" />
            <mxPoint x="570" y="300" as="targetPoint" />
          </mxGeometry>
        </mxCell>
        <mxCell id="EevinZ-3thIcNN1Y9zwA-25" value="" style="endArrow=classic;html=1;rounded=0;exitX=1;exitY=0.3333333333333333;exitDx=0;exitDy=0;exitPerimeter=0;" edge="1" parent="1" source="EevinZ-3thIcNN1Y9zwA-1" target="EevinZ-3thIcNN1Y9zwA-23">
          <mxGeometry width="50" height="50" relative="1" as="geometry">
            <mxPoint x="190" y="90" as="sourcePoint" />
            <mxPoint x="240" y="40" as="targetPoint" />
          </mxGeometry>
        </mxCell>
        <mxCell id="EevinZ-3thIcNN1Y9zwA-26" value="Comment on Post" style="ellipse;whiteSpace=wrap;html=1;" vertex="1" parent="1">
          <mxGeometry x="140" y="160" width="140" height="70" as="geometry" />
        </mxCell>
        <mxCell id="EevinZ-3thIcNN1Y9zwA-27" value="" style="endArrow=classic;html=1;rounded=0;exitX=0.5;exitY=0.5;exitDx=0;exitDy=0;exitPerimeter=0;" edge="1" parent="1" source="EevinZ-3thIcNN1Y9zwA-1" target="EevinZ-3thIcNN1Y9zwA-26">
          <mxGeometry width="50" height="50" relative="1" as="geometry">
            <mxPoint x="96" y="130.02" as="sourcePoint" />
            <mxPoint x="400" y="222.02" as="targetPoint" />
            <Array as="points" />
          </mxGeometry>
        </mxCell>
        <mxCell id="EevinZ-3thIcNN1Y9zwA-28" value="&amp;lt;&amp;lt;extend&amp;gt;&amp;gt;" style="html=1;verticalAlign=bottom;labelBackgroundColor=none;endArrow=open;endFill=0;dashed=1;rounded=0;exitX=1;exitY=0.614;exitDx=0;exitDy=0;exitPerimeter=0;" edge="1" parent="1" source="EevinZ-3thIcNN1Y9zwA-26" target="EevinZ-3thIcNN1Y9zwA-18">
          <mxGeometry width="160" relative="1" as="geometry">
            <mxPoint x="390" y="230" as="sourcePoint" />
            <mxPoint x="390" y="300" as="targetPoint" />
          </mxGeometry>
        </mxCell>
      </root>
    </mxGraphModel>
  </diagram>
</mxfile>
